<svg width="26" height="26" viewBox="0 0 26 26" fill="none" xmlns="http://www.w3.org/2000/svg">
<rect width="26" height="26" rx="6" fill="#131516" fill-opacity="0.05"/>
<path d="M9.74838 19C9.00171 19 8.40438 18.7813 7.95638 18.344C7.51904 17.9067 7.30038 17.32 7.30038 16.584C7.30038 15.8053 7.52971 15.2027 7.98838 14.776C8.45771 14.3387 9.14571 14.12 10.0524 14.12H10.9964V12.36H10.0524C9.14571 12.36 8.45771 12.1467 7.98838 11.72C7.52971 11.2827 7.30038 10.6747 7.30038 9.896C7.30038 9.16 7.51904 8.57333 7.95638 8.136C8.40438 7.69867 9.00171 7.48 9.74838 7.48C10.3457 7.48 10.815 7.592 11.1564 7.816C11.5084 8.04 11.7537 8.33867 11.8924 8.712C12.0417 9.08533 12.1164 9.496 12.1164 9.944V11.272H13.8764V9.944C13.8764 9.496 13.9457 9.08533 14.0844 8.712C14.2337 8.33867 14.479 8.04 14.8204 7.816C15.1724 7.592 15.647 7.48 16.2444 7.48C16.991 7.48 17.583 7.69867 18.0204 8.136C18.4684 8.57333 18.6924 9.16 18.6924 9.896C18.6924 10.6747 18.463 11.2827 18.0044 11.72C17.5457 12.1467 16.8577 12.36 15.9404 12.36H14.9964V14.12H15.9404C16.8577 14.12 17.5457 14.3387 18.0044 14.776C18.463 15.2027 18.6924 15.8053 18.6924 16.584C18.6924 17.32 18.4684 17.9067 18.0204 18.344C17.583 18.7813 16.991 19 16.2444 19C15.647 19 15.1724 18.888 14.8204 18.664C14.479 18.44 14.2337 18.1413 14.0844 17.768C13.9457 17.3947 13.8764 16.984 13.8764 16.536V15.208H12.1164V16.536C12.1164 16.984 12.0417 17.3947 11.8924 17.768C11.7537 18.1413 11.5084 18.44 11.1564 18.664C10.815 18.888 10.3457 19 9.74838 19ZM14.9964 9.912V11.272H15.9404C16.5057 11.272 16.9164 11.16 17.1724 10.936C17.4284 10.7013 17.5564 10.3547 17.5564 9.896C17.5564 9.42667 17.4284 9.09067 17.1724 8.888C16.927 8.68533 16.6177 8.584 16.2444 8.584C15.8284 8.584 15.5137 8.70667 15.3004 8.952C15.0977 9.18667 14.9964 9.50667 14.9964 9.912ZM10.0524 11.272H10.9964V9.912C10.9964 9.50667 10.8897 9.18667 10.6764 8.952C10.4737 8.70667 10.1644 8.584 9.74838 8.584C9.37504 8.584 9.06038 8.68533 8.80438 8.888C8.55904 9.09067 8.43638 9.42667 8.43638 9.896C8.43638 10.3547 8.56438 10.7013 8.82038 10.936C9.07638 11.16 9.48704 11.272 10.0524 11.272ZM12.1164 14.12H13.8764V12.36H12.1164V14.12ZM9.74838 17.896C10.1644 17.896 10.4737 17.7787 10.6764 17.544C10.8897 17.2987 10.9964 16.9733 10.9964 16.568V15.208H10.0524C9.48704 15.208 9.07638 15.3253 8.82038 15.56C8.56438 15.784 8.43638 16.1253 8.43638 16.584C8.43638 17.0533 8.55904 17.3893 8.80438 17.592C9.06038 17.7947 9.37504 17.896 9.74838 17.896ZM14.9964 16.568C14.9964 16.9733 15.0977 17.2987 15.3004 17.544C15.5137 17.7787 15.8284 17.896 16.2444 17.896C16.6177 17.896 16.927 17.7947 17.1724 17.592C17.4284 17.3893 17.5564 17.0533 17.5564 16.584C17.5564 16.1253 17.4284 15.784 17.1724 15.56C16.9164 15.3253 16.5057 15.208 15.9404 15.208H14.9964V16.568Z" fill="#131516"/>
</svg>
