<svg width="120" height="64" viewBox="0 0 120 64" fill="none" xmlns="http://www.w3.org/2000/svg">
<path d="M69.5659 25.913H61.7398V38.087H69.5659M99.1311 25.913H91.305V38.087H99.1311M96.5224 32H91.305M66.9572 32H61.7398M106.088 38.087V25.913L115.653 38.087V25.913M19.1311 35.2174L28.6963 41.5652M19.1311 35.2174V28.7826M19.1311 35.2174L28.6963 28.7826M28.6963 41.5652L38.2616 35.2174M28.6963 41.5652V35.2174M38.2616 35.2174V28.7826M38.2616 35.2174L28.6963 28.7826M38.2616 28.7826L28.6963 22.4348M38.2616 28.7826L28.6963 35.1304L19.1311 28.7826M28.6963 22.4348L19.1311 28.7826M28.6963 22.4348V28.7826M76.5224 32.8696H81.7398C83.6529 32.8696 85.2181 31.3043 85.2181 29.3913C85.2181 27.4783 83.6529 25.913 81.7398 25.913H76.5224V38.087M13.0442 27.6522C11.9137 26.5217 10.4355 25.913 8.69633 25.913C5.21807 25.913 2.60938 28.5217 2.60938 32C2.60938 35.4783 5.21807 38.087 8.69633 38.087C10.4355 38.087 11.9137 37.3913 13.0442 36.3478M55.6529 32C55.6529 35.4783 53.0442 38.087 49.5659 38.087H45.2181V25.913H49.5659C53.0442 25.913 55.6529 28.5217 55.6529 32Z" stroke="black" stroke-width="2.3" stroke-linecap="round" stroke-linejoin="round"/>
</svg>
