<svg width="120" height="64" viewBox="0 0 120 64" fill="none" xmlns="http://www.w3.org/2000/svg">
<g clip-path="url(#clip0_609_1014)">
<path d="M59.8866 26.2782C55.9993 26.2782 53.1964 28.8134 53.1964 32.6162C53.1964 36.419 56.3514 38.9542 60.2387 38.9542C62.5873 38.9542 64.6577 38.0246 65.9394 36.4577L63.2457 34.9014C62.5345 35.6796 61.4535 36.1338 60.2387 36.1338C58.5521 36.1338 57.119 35.2535 56.5873 33.8451H66.4535C66.531 33.4507 66.5767 33.0423 66.5767 32.6127C66.5767 28.8134 63.7739 26.2782 59.8866 26.2782ZM56.5556 31.3838C56.9957 29.9789 58.2 29.0951 59.8831 29.0951C61.5697 29.0951 62.7739 29.9789 63.2105 31.3838H56.5556ZM97.8021 26.2782C93.9148 26.2782 91.1119 28.8134 91.1119 32.6162C91.1119 36.419 94.2669 38.9542 98.1542 38.9542C100.503 38.9542 102.573 38.0246 103.855 36.4577L101.161 34.9014C100.45 35.6796 99.369 36.1338 98.1542 36.1338C96.4676 36.1338 95.0345 35.2535 94.5028 33.8451H104.369C104.446 33.4507 104.492 33.0423 104.492 32.6127C104.492 28.8134 101.689 26.2782 97.8021 26.2782ZM94.4746 31.3838C94.9148 29.9789 96.119 29.0951 97.8021 29.0951C99.4887 29.0951 100.693 29.9789 101.13 31.3838H94.4746ZM80.7317 32.6162C80.7317 34.7289 82.1119 36.1373 84.2528 36.1373C85.7035 36.1373 86.7915 35.4789 87.3514 34.4049L90.0556 35.9648C88.9359 37.831 86.8373 38.9542 84.2528 38.9542C80.3619 38.9542 77.5626 36.419 77.5626 32.6162C77.5626 28.8134 80.3655 26.2782 84.2528 26.2782C86.8373 26.2782 88.9324 27.4014 90.0556 29.2676L87.3514 30.8275C86.7915 29.7535 85.7035 29.0951 84.2528 29.0951C82.1155 29.0951 80.7317 30.5035 80.7317 32.6162ZM109.774 22.4049V38.6021H106.605V22.4049H109.774ZM23.2352 20.6444L36.2457 43.1796H10.2246L23.2352 20.6444ZM55.7633 22.4049L46.0063 39.3063L36.2493 22.4049H39.9077L46.0063 32.9683L52.1049 22.4049H55.7633ZM76.5063 26.6303V30.0423C76.1542 29.9401 75.781 29.8697 75.3795 29.8697C73.3338 29.8697 71.8584 31.2782 71.8584 33.3908V38.6021H68.6894V26.6303H71.8584V29.8697C71.8584 28.081 73.9394 26.6303 76.5063 26.6303Z" fill="black"/>
</g>
<defs>
<clipPath id="clip0_609_1014">
<rect width="100" height="22.8873" fill="white" transform="translate(10 20.5563)"/>
</clipPath>
</defs>
</svg>
