<svg width="137" height="64" viewBox="0 0 137 64" fill="none" xmlns="http://www.w3.org/2000/svg">
<g clip-path="url(#clip0_609_975)">
<path d="M76.5832 21.375H74.8115C74.7392 21.375 74.7031 21.4135 74.7031 21.4905V37.5892C74.7031 37.6662 74.7392 37.7047 74.8115 37.7047H76.5832C76.6555 37.7047 76.6917 37.6662 76.6917 37.5892V21.4905C76.6555 21.4135 76.6193 21.375 76.5832 21.375Z" fill="#0C2D66"/>
<path d="M108.872 26.3818H110.86C110.896 26.3818 110.969 26.4588 110.969 26.4973V28.3845C110.969 28.4615 110.933 28.5 110.86 28.5H108.872C108.835 28.5 108.799 28.5385 108.799 28.577V37.5892C108.799 37.6662 108.763 37.7047 108.691 37.7047H106.919C106.847 37.7047 106.811 37.6662 106.811 37.5892V28.577C106.811 28.5385 106.775 28.5 106.738 28.5H104.786C104.714 28.5 104.678 28.4615 104.678 28.3845V26.4973C104.678 26.4203 104.714 26.3818 104.786 26.3818H106.738C106.775 26.3818 106.811 26.3432 106.811 26.3047V21.4905C106.811 21.4135 106.847 21.375 106.919 21.375H108.691C108.763 21.375 108.799 21.4135 108.799 21.4905V26.3047C108.799 26.3432 108.835 26.3818 108.872 26.3818Z" fill="#0C2D66"/>
<path d="M112.739 22.7615H114.511C114.583 22.7615 114.619 22.8001 114.619 22.8771V24.7642C114.619 24.8413 114.583 24.8798 114.511 24.8798H112.739C112.667 24.8798 112.631 24.8413 112.631 24.7642V22.8771C112.631 22.8001 112.667 22.7615 112.739 22.7615Z" fill="#0C2D66"/>
<path d="M112.739 26.3818H114.511C114.583 26.3818 114.619 26.4588 114.619 26.4973V37.5892C114.619 37.6663 114.583 37.7048 114.511 37.7048H112.739C112.667 37.7048 112.631 37.6663 112.631 37.5892V26.4973C112.631 26.4203 112.667 26.3818 112.739 26.3818Z" fill="#0C2D66"/>
<path fill-rule="evenodd" clip-rule="evenodd" d="M131.65 35.7791C130.601 35.7791 129.697 35.3169 129.047 34.5467C129.01 34.4697 129.01 34.3926 129.083 34.3541L135.157 31.6197L136.929 30.8109C137.001 30.7724 137.001 30.7338 137.001 30.6953C136.422 28.0379 134.145 26.0737 131.469 26.1893C128.649 26.3048 126.299 28.7311 126.19 31.7352C126.046 35.0859 128.54 37.8588 131.686 37.8588C133.964 37.8588 135.916 36.3568 136.748 34.2386C136.784 34.1615 136.748 34.0845 136.675 34.0845L134.904 33.7379C134.868 33.7379 134.795 33.7379 134.795 33.8149C134.145 34.9703 132.988 35.7791 131.65 35.7791ZM131.65 28.3075C132.698 28.3075 133.638 28.8082 134.253 29.5785C134.289 29.6555 134.289 29.7325 134.217 29.7711C134.217 29.7711 128.36 32.4285 128.287 32.467C128.215 32.5055 128.143 32.4285 128.143 32.39V32.0819C128.106 29.9636 129.697 28.3075 131.65 28.3075Z" fill="#0C2D66"/>
<path d="M124.202 26.3818H125.937C126.01 26.3818 126.046 26.4588 125.973 26.5359L122.394 37.6278C122.358 37.6663 122.322 37.7048 122.285 37.7048H119.827C119.755 37.7048 119.718 37.6663 119.718 37.6278L116.139 26.5359C116.139 26.4588 116.175 26.3818 116.247 26.3818H117.983C118.055 26.3818 118.091 26.4203 118.091 26.4588L120.912 35.2784C120.984 35.471 121.201 35.471 121.273 35.2784L124.093 26.4588C124.129 26.4203 124.166 26.3818 124.202 26.3818Z" fill="#0C2D66"/>
<path d="M99.2527 35.779C97.0833 35.779 95.384 33.6993 95.7817 31.3115C95.9986 30.002 97.2279 28.654 98.4572 28.3844C99.795 28.0763 101.061 28.577 101.856 29.5398C101.893 29.5784 101.965 29.5784 102.001 29.5398L103.266 28.1919C103.303 28.1534 103.303 28.0763 103.266 28.0378C102.218 26.8054 100.663 26.0736 98.9634 26.1507C96.1794 26.3047 93.8654 28.7311 93.7208 31.6966C93.5762 35.0473 96.0709 37.8203 99.2165 37.8203C100.808 37.8203 102.254 37.0885 103.266 35.9331C103.303 35.8946 103.303 35.8561 103.266 35.8176L102.001 34.4696C101.965 34.4311 101.893 34.4311 101.856 34.4696C101.242 35.3169 100.302 35.779 99.2527 35.779Z" fill="#0C2D66"/>
<path fill-rule="evenodd" clip-rule="evenodd" d="M87.4303 35.779C86.3818 35.779 85.4779 35.3169 84.8271 34.5466C84.7909 34.4696 84.7909 34.3926 84.8633 34.354L90.9374 31.6196L92.7091 30.8108C92.7814 30.7723 92.7814 30.7338 92.7814 30.6953C92.2029 28.0378 89.9251 26.0736 87.2495 26.1892C84.4294 26.3047 82.0792 28.7311 81.9708 31.7351C81.8262 35.0858 84.3209 37.8588 87.4665 37.8588C89.7443 37.8588 91.6967 36.3567 92.5283 34.2385C92.5645 34.1615 92.5283 34.0844 92.456 34.0844L90.6844 33.7378C90.6482 33.7378 90.5759 33.7378 90.5759 33.8149C89.9251 34.9703 88.7319 35.779 87.4303 35.779ZM87.4304 28.3074C88.4789 28.3074 89.4189 28.8081 90.0336 29.5784C90.0698 29.6554 90.0698 29.7324 89.9974 29.771C89.9974 29.771 84.1402 32.4284 84.0678 32.4669C83.9955 32.5054 83.9232 32.4284 83.9232 32.3899V32.0818C83.8871 29.9635 85.4779 28.3074 87.4304 28.3074Z" fill="#0C2D66"/>
<path d="M78.6807 21.375H80.4524C80.4885 21.375 80.5608 21.4135 80.5608 21.4905V37.5892C80.5608 37.6662 80.5247 37.7047 80.4524 37.7047H78.6807C78.6084 37.7047 78.5723 37.6662 78.5723 37.5892V21.4905C78.5723 21.4135 78.6084 21.375 78.6807 21.375Z" fill="#0C2D66"/>
<path fill-rule="evenodd" clip-rule="evenodd" d="M62.4102 32.0433C62.4102 28.8081 64.8688 26.1892 67.906 26.1892C70.9431 26.1892 73.4017 28.8081 73.4017 32.0433C73.4017 35.2784 70.9431 37.8973 67.906 37.8973C64.8688 37.8973 62.4102 35.2784 62.4102 32.0433ZM71.4131 32.0433C71.4131 30.002 69.8584 28.3074 67.9059 28.3074C65.9535 28.3074 64.3988 30.002 64.3988 32.0433C64.3988 34.0845 65.9897 35.7791 67.9059 35.7791C69.8222 35.7791 71.4131 34.0845 71.4131 32.0433Z" fill="#0C2D66"/>
<path d="M54.3481 31.3115C53.9503 33.6993 55.6497 35.779 57.819 35.779C58.8675 35.779 59.8076 35.3169 60.4222 34.4696C60.4584 34.4311 60.5307 34.4311 60.5669 34.4696L61.8323 35.8176C61.8685 35.8561 61.8685 35.8946 61.8323 35.9331C60.82 37.0885 59.3737 37.8203 57.7829 37.8203C54.6373 37.8203 52.1425 35.0473 52.2872 31.6966C52.4318 28.7311 54.7458 26.3047 57.5298 26.1507C59.2291 26.0736 60.7838 26.8054 61.8323 28.0378C61.8685 28.0763 61.8685 28.1534 61.8323 28.1919L60.5669 29.5398C60.5307 29.5784 60.4584 29.5784 60.4222 29.5398C59.6268 28.577 58.3614 28.0763 57.0236 28.3844C55.7943 28.654 54.565 30.002 54.3481 31.3115Z" fill="#0C2D66"/>
<path d="M41.9761 26.1892C40.8191 26.1892 39.4813 26.9595 38.8667 27.8838C38.8305 27.9608 38.6859 27.9223 38.6859 27.8453V26.4973C38.6859 26.4588 38.6497 26.3818 38.5774 26.3818H36.8058C36.7696 26.3818 36.6973 26.4203 36.6973 26.4973V37.6277C36.6973 37.6662 36.7335 37.7433 36.8058 37.7433H38.5774C38.6136 37.7433 38.6859 37.7047 38.6859 37.6277V32.0818C38.6859 29.9635 40.0237 28.4615 41.9399 28.4615C44.4708 28.4615 45.2301 30.2331 45.2301 32.3129V37.6277C45.2301 37.6662 45.2663 37.7433 45.3386 37.7433H47.1102C47.1464 37.7433 47.2187 37.7047 47.2187 37.6277V32.3129C47.2548 29.0777 45.8086 26.1892 41.9761 26.1892Z" fill="#0C2D66"/>
<path fill-rule="evenodd" clip-rule="evenodd" d="M30.2975 35.779C29.249 35.779 28.3451 35.3169 27.6943 34.5466C27.6581 34.4696 27.6581 34.3926 27.7304 34.354L33.8046 31.6196L35.5763 30.8108C35.6486 30.7723 35.6486 30.7338 35.6486 30.6953C35.0701 28.0378 32.7923 26.0736 30.1167 26.1892C27.2966 26.3047 24.9464 28.7311 24.838 31.7351C24.6933 35.0858 27.1881 37.8588 30.3337 37.8588C32.6115 37.8588 34.5639 36.3567 35.3955 34.2385C35.4316 34.1615 35.3955 34.0844 35.3232 34.0844L33.5515 33.7378C33.5154 33.7378 33.4431 33.7378 33.4431 33.8149C32.7923 34.9703 31.6353 35.779 30.2975 35.779ZM30.2975 28.3074C31.346 28.3074 32.2861 28.8081 32.9007 29.5784C32.9369 29.6554 32.9369 29.7324 32.8646 29.771C32.8646 29.771 27.0073 32.4284 26.935 32.4669C26.8627 32.5054 26.7904 32.4284 26.7904 32.3899V32.0818C26.7904 29.9635 28.3812 28.3074 30.2975 28.3074Z" fill="#0C2D66"/>
<path fill-rule="evenodd" clip-rule="evenodd" d="M15.0756 27.6527C15.8348 26.6899 16.9196 26.1122 18.2935 26.0736C20.9328 26.0351 23.3191 28.0378 23.753 30.8493C24.4038 34.5466 21.7283 37.7817 18.3658 37.7817C16.9195 37.7817 15.7987 37.1655 15.0394 36.2027C14.9671 36.1257 14.8586 36.1642 14.8586 36.2797V42.6344C14.8586 42.7115 14.8225 42.75 14.7502 42.75H13.0147C12.9424 42.75 12.9062 42.7115 12.9062 42.6344V26.4973C12.9062 26.4203 12.9424 26.3817 13.0147 26.3817H14.7863C14.8586 26.3817 14.8948 26.4203 14.8948 26.4973V27.5757C14.8948 27.6912 15.0033 27.7297 15.0756 27.6527ZM14.931 31.3115C14.5333 33.8533 16.5942 36.0486 18.9805 35.625C20.4267 35.3554 21.6198 34.1229 21.8367 32.5824C22.2344 30.0405 20.1737 27.8452 17.7874 28.2689C16.3411 28.5 15.1841 29.7709 14.931 31.3115Z" fill="#0C2D66"/>
<path fill-rule="evenodd" clip-rule="evenodd" d="M6.39804 26.1892C3.36095 26.1892 0.902344 28.8081 0.902344 32.0433C0.902344 35.2784 3.36095 37.8973 6.39804 37.8973C9.43514 37.8973 11.8937 35.2784 11.8937 32.0433C11.8937 28.8081 9.43514 26.1892 6.39804 26.1892ZM6.39803 28.3074C8.35045 28.3074 9.90516 30.002 9.90516 32.0432C9.90516 34.0845 8.3143 35.7791 6.39803 35.7791C4.48177 35.7791 2.89091 34.0845 2.89091 32.0432C2.89091 30.002 4.48177 28.3074 6.39803 28.3074Z" fill="#0C2D66"/>
</g>
<defs>
<clipPath id="clip0_609_975">
<rect width="137" height="23" fill="white" transform="translate(0 20.5)"/>
</clipPath>
</defs>
</svg>
