<svg width="120" height="64" viewBox="0 0 120 64" fill="none" xmlns="http://www.w3.org/2000/svg">
<g clip-path="url(#clip0_609_956)">
<mask id="mask0_609_956" style="mask-type:luminance" maskUnits="userSpaceOnUse" x="10" y="11" width="100" height="42">
<path d="M110 11.5898H10V52.2395H110V11.5898Z" fill="white"/>
</mask>
<g mask="url(#mask0_609_956)">
<path d="M32.9375 52.0266V41.7859L33.151 41.5723H35.2844L35.4979 41.7859V52.0266L35.2844 52.2402H33.151L32.9375 52.0266Z" fill="#05BDBA"/>
<path d="M32.9375 22.0435V11.8034L33.151 11.5898H35.2844L35.4979 11.8034V22.0435L35.2844 22.257H33.151L32.9375 22.0435Z" fill="#05BDBA"/>
<path d="M23.6635 44.6441H23.3618L21.8535 43.1352V42.8334L25.3756 39.3121L26.9728 39.3129L27.1871 39.5256V41.1229L23.6635 44.6441Z" fill="#05BDBA"/>
<path d="M23.6615 19.1859H23.3599L21.8516 20.6949V20.9966L25.3737 24.518L26.9708 24.5172L27.1851 24.3044V22.7073L23.6615 19.1859Z" fill="#05BDBA"/>
<path d="M10.2136 30.6348H24.7209L24.9345 30.8484V32.9816L24.7209 33.1953H10.2136L10 32.9816V30.8484L10.2136 30.6348Z" fill="#05BDBA"/>
<path d="M96.1328 30.6348H109.787L110.001 30.8484V32.9816L109.787 33.1953H95.2801L95.0664 32.9816L95.9191 30.8484L96.1328 30.6348Z" fill="#05BDBA"/>
<path d="M51.4174 32.8256L51.2039 33.0393H44.5859L44.3725 33.2527C44.3725 33.6799 44.7996 34.9604 46.5072 34.9604C47.1479 34.9604 47.7877 34.7469 48.0014 34.3197L48.2148 34.1062H50.7768L50.9902 34.3197C50.7768 35.6004 49.7098 37.5223 46.5072 37.5223C42.8783 37.5223 41.1699 34.9604 41.1699 31.9721C41.1699 28.9839 42.8775 26.422 46.2936 26.422C49.7098 26.422 51.4174 28.9839 51.4174 31.9721V32.8264V32.8256ZM48.2148 30.6908C48.2148 30.4773 48.0014 28.9832 46.2936 28.9832C44.5859 28.9832 44.3725 30.4773 44.3725 30.6908L44.5859 30.9044H48.0014L48.2148 30.6908Z" fill="#014847"/>
<path d="M57.3939 34.1063C57.3939 34.5332 57.6074 34.7469 58.0346 34.7469H59.9557L60.1693 34.9604V37.0951L59.9557 37.3088H58.0346C56.1133 37.3088 54.4057 36.4545 54.4057 34.1063V29.4095L54.192 29.196H52.698L52.4844 28.9824V26.8476L52.698 26.6341H54.192L54.4057 26.4205V24.4993L54.6191 24.2858H57.1811L57.3945 24.4993V26.4205L57.6082 26.6341H59.9564L60.1701 26.8476V28.9824L59.9564 29.196H57.6082L57.3945 29.4095V34.1063H57.3939Z" fill="#014847"/>
<path d="M65.2932 37.3088H62.7312L62.5176 37.0951V22.5788L62.7312 22.3653H65.2932L65.5066 22.5788V37.0951L65.2932 37.3088Z" fill="#014847"/>
<path d="M71.0568 24.9272H68.4949L68.2812 24.7136V22.5788L68.4949 22.3653H71.0568L71.2703 22.5788V24.7136L71.0568 24.9272ZM71.0568 37.3088H68.4949L68.2812 37.0951V26.8484L68.4949 26.6348H71.0568L71.2703 26.8484V37.0951L71.0568 37.3088Z" fill="#014847"/>
<path d="M81.09 22.5788V24.7136L80.8764 24.9272H78.9553C78.5281 24.9272 78.3145 25.1407 78.3145 25.5678V26.422L78.5281 26.6356H80.6629L80.8764 26.8491V28.9839L80.6629 29.1975H78.5281L78.3145 29.411V37.0959L78.101 37.3094H75.5391L75.3256 37.0959V29.411L75.1119 29.1975H73.618L73.4043 28.9839V26.8491L73.618 26.6356H75.1119L75.3256 26.422V25.5678C75.3256 23.2195 77.0332 22.3653 78.9545 22.3653H80.8756L81.0893 22.5788H81.09Z" fill="#014847"/>
<path d="M88.9891 37.5223C88.1348 39.657 87.2814 40.9377 84.2924 40.9377H83.2246L83.0111 40.724V38.5893L83.2246 38.3758H84.2924C85.3594 38.3758 85.5729 38.1621 85.7865 37.5215V37.308L82.3711 28.9824V26.8476L82.5848 26.6341H84.5059L84.7195 26.8476L87.2814 34.1063H87.4949L90.0568 26.8476L90.2703 26.6341H92.1916L92.4051 26.8476V28.9824L88.9898 37.5215L88.9891 37.5223Z" fill="#014847"/>
<path d="M36.4563 37.3088L36.2428 37.0951L36.2442 30.9096C36.2442 29.8426 35.8246 29.0153 34.5365 28.9884C33.8742 28.9712 33.1164 28.9869 32.3069 29.0212L32.186 29.1452L32.1875 37.0951L31.9738 37.3088H29.4128L29.1992 37.0951V26.7341L29.4128 26.5206L35.1764 26.4683C38.0639 26.4683 39.2324 28.4523 39.2324 30.6916V37.0951L39.019 37.3088H36.4563Z" fill="#014847"/>
</g>
</g>
<defs>
<clipPath id="clip0_609_956">
<rect width="100" height="40.8203" fill="white" transform="translate(10 11.5898)"/>
</clipPath>
</defs>
</svg>
