<svg width="120" height="64" viewBox="0 0 120 64" fill="none" xmlns="http://www.w3.org/2000/svg">
<g clip-path="url(#clip0_609_996)">
<path opacity="0.7" d="M81.1868 29.4744V40.2041H77.6602V31.3066L81.1868 29.4744Z" fill="#E84031"/>
<path opacity="0.7" d="M33.9902 40.4739L42.2309 36.1647L41.2145 33.5333L35.7892 36.063L33.9902 40.4739Z" fill="#E84031"/>
<path opacity="0.5" d="M77.6602 31.2973L86.6012 26.722L85.0905 24.1673L77.6602 27.7984V31.2973Z" fill="#E84031"/>
<path opacity="0.7" d="M52.4803 28.6253V40.2041H49.1172V23.7136L52.4803 28.6253Z" fill="#E84031"/>
<path opacity="0.5" d="M39.0879 27.985L33.9923 40.4739L31.3711 38.2177L37.4423 23.7136L39.0879 27.985Z" fill="#E84031"/>
<path d="M37.4414 23.7136H40.9154L47.3405 40.2041H43.7843L37.4414 23.7136Z" fill="#E84031"/>
<path d="M53.0005 23.7136L60.4068 34.9802V40.2041L49.1172 23.7136H53.0005Z" fill="#E84031"/>
<path d="M70.2499 23.7136H66.75V40.2069H70.2499V23.7136Z" fill="#E84031"/>
<path d="M77.6599 26.722H72.2715V23.7136H84.8205L86.6 26.722H81.1857H77.6599Z" fill="#E84031"/>
<path opacity="0.5" d="M96.935 33.9463V40.2032H93.4609V33.9463" fill="#E84031"/>
<path d="M93.4609 33.9463L99.3391 23.7136H103.03L96.935 33.9463H93.4609Z" fill="#E84031"/>
<path opacity="0.7" d="M93.4606 33.9463L87.418 23.7136H91.2191L95.3121 30.7263L93.4606 33.9463Z" fill="#E84031"/>
<path d="M18.3296 25.6169C18.3296 27.9129 19.7728 29.2794 22.6629 30.0001L25.7248 30.6977C28.4597 31.3149 30.1246 32.8477 30.1246 35.3451C30.1459 36.4326 29.7855 37.4951 29.1046 38.3535C29.1046 35.8616 27.7926 34.5154 24.6281 33.7061L21.6216 33.0343C19.2138 32.4948 17.3557 31.2345 17.3557 28.5218C17.3446 27.4741 17.6865 26.4522 18.3296 25.6169Z" fill="#E84031"/>
<path opacity="0.7" d="M60.4062 34.1329V23.7136H63.7694V40.2041H60.4062V34.1329Z" fill="#E84031"/>
<path opacity="0.7" d="M27.2236 34.7335C28.5292 35.5539 29.102 36.7024 29.102 38.3498C28.021 39.7098 26.1214 40.4739 23.8891 40.4739C20.1314 40.4739 17.5019 38.6565 16.918 35.4994H20.526C20.9907 36.9491 22.2205 37.6208 23.8623 37.6208C25.8664 37.6208 27.1987 36.5703 27.2255 34.727" fill="#E84031"/>
<path opacity="0.7" d="M20.206 29.0207C19.61 28.6724 19.1204 28.1726 18.7896 27.5729C18.4597 26.9733 18.3008 26.2979 18.3295 25.6169C19.3726 24.268 21.1872 23.4438 23.3991 23.4438C27.227 23.4438 29.4417 25.4303 29.9878 28.2261H26.5165C26.134 27.1239 25.175 26.2655 23.4278 26.2655C21.5605 26.2655 20.2873 27.3336 20.2134 29.0207" fill="#E84031"/>
</g>
<defs>
<clipPath id="clip0_609_996">
<rect width="120" height="64" fill="white"/>
</clipPath>
</defs>
</svg>
