<svg width="167" height="64" viewBox="0 0 167 64" fill="none" xmlns="http://www.w3.org/2000/svg">
<g clip-path="url(#clip0_609_992)">
<path d="M17.183 21.5C12.6 21.5 9.737 23.791 8.59 28.373C10.309 26.083 12.313 25.223 14.604 25.796C15.911 26.122 16.846 27.07 17.879 28.12C19.564 29.83 21.514 31.809 25.773 31.809C30.355 31.809 33.218 29.518 34.364 24.937C32.646 27.227 30.641 28.087 28.351 27.513C27.043 27.187 26.108 26.239 25.075 25.189C23.39 23.48 21.44 21.5 17.183 21.5ZM8.59 31.809C4.01 31.809 1.145 34.1 0 38.682C1.718 36.391 3.723 35.532 6.013 36.105C7.321 36.431 8.256 37.379 9.289 38.429C10.974 40.139 12.924 42.118 17.183 42.118C21.765 42.118 24.628 39.828 25.773 35.246C24.055 37.536 22.051 38.396 19.76 37.823C18.453 37.496 17.518 36.547 16.484 35.498C14.8 33.788 12.849 31.809 8.59 31.809Z" fill="#00BCFF"/>
<path d="M51.5479 30.188H48.5479V35.991C48.5479 37.539 49.5639 37.515 51.5479 37.418V39.764C47.5329 40.247 45.9369 39.135 45.9369 35.991V30.188H43.7109V27.672H45.9359V24.425L48.5479 23.651V27.672H51.5459V30.188H51.5479ZM62.9779 27.672H65.5879V39.764H62.9779V38.023C62.0579 39.303 60.6319 40.078 58.7449 40.078C55.4569 40.078 52.7239 37.298 52.7239 33.718C52.7239 30.115 55.4569 27.358 58.7449 27.358C60.6309 27.358 62.0579 28.132 62.9779 29.39V27.672ZM59.1569 37.587C61.3329 37.587 62.9769 35.967 62.9769 33.717C62.9769 31.469 61.3329 29.849 59.1569 29.849C56.9799 29.849 55.3359 31.469 55.3359 33.718C55.3359 35.967 56.9799 37.588 59.1559 37.588L59.1569 37.587ZM69.9409 25.86C69.4999 25.8551 69.0784 25.6776 68.7666 25.3656C68.4548 25.0537 68.2776 24.632 68.2729 24.191C68.2749 23.748 68.4519 23.323 68.7639 23.011C68.9183 22.8561 69.1018 22.7333 69.3037 22.6494C69.5057 22.5656 69.7223 22.5224 69.9409 22.5224C70.1596 22.5224 70.3762 22.5656 70.5781 22.6494C70.7801 22.7333 70.9635 22.8561 71.1179 23.011C71.4299 23.323 71.6079 23.748 71.6089 24.191C71.6089 25.086 70.8589 25.86 69.9409 25.86ZM68.6349 39.765V27.672H71.2469V39.764L68.6349 39.765ZM74.2699 39.765V22.109H76.8809V39.763H74.2709L74.2699 39.765ZM93.8349 27.672H96.5919L92.7949 39.764H90.2319L87.7159 31.614L85.1769 39.764H82.6139L78.8169 27.672H81.5739L83.9199 36.015L86.4599 27.672H88.9499L91.4639 36.015L93.8349 27.672ZM99.8309 25.86C98.9109 25.86 98.1619 25.086 98.1619 24.191C98.1639 23.748 98.3419 23.323 98.6539 23.011C98.8083 22.856 98.9917 22.733 99.1937 22.6491C99.3957 22.5652 99.6122 22.522 99.8309 22.522C100.05 22.522 100.266 22.5652 100.468 22.6491C100.67 22.733 100.854 22.856 101.008 23.011C101.321 23.323 101.498 23.748 101.5 24.191C101.5 25.086 100.75 25.86 99.8309 25.86ZM98.5249 39.765V27.672H101.137V39.764L98.5249 39.765ZM110.521 27.358C113.229 27.358 115.164 29.196 115.164 32.34V39.763H112.552V32.605C112.552 30.767 111.488 29.801 109.844 29.801C108.127 29.801 106.773 30.816 106.773 33.283V39.763H104.161V27.674H106.773V29.22C107.571 27.963 108.876 27.358 110.521 27.358ZM127.545 22.836H130.157V39.763H127.545V38.022C126.627 39.304 125.2 40.077 123.314 40.077C120.025 40.077 117.292 37.297 117.292 33.717C117.292 30.114 120.025 27.357 123.314 27.357C125.2 27.357 126.627 28.131 127.545 29.389V22.836ZM123.724 37.587C125.901 37.587 127.545 35.967 127.545 33.717C127.545 31.469 125.901 29.849 123.724 29.849C121.548 29.849 119.904 31.469 119.904 33.718C119.904 35.967 121.548 37.587 123.724 37.587ZM138.911 40.077C135.26 40.077 132.527 37.297 132.527 33.717C132.527 30.115 135.26 27.358 138.911 27.358C141.281 27.358 143.337 28.591 144.304 30.478L142.055 31.784C141.523 30.647 140.338 29.921 138.887 29.921C136.759 29.921 135.139 31.541 135.139 33.718C135.139 35.894 136.759 37.515 138.887 37.515C140.338 37.515 141.523 36.765 142.103 35.652L144.352 36.934C143.337 38.844 141.281 40.077 138.911 40.077ZM148.657 31.009C148.657 33.21 155.162 31.879 155.162 36.354C155.162 38.773 153.058 40.078 150.446 40.078C148.028 40.078 146.287 38.989 145.513 37.248L147.762 35.943C148.149 37.031 149.117 37.683 150.446 37.683C151.607 37.683 152.502 37.297 152.502 36.329C152.502 34.178 145.997 35.387 145.997 31.059C145.997 28.785 147.956 27.358 150.422 27.358C152.405 27.358 154.05 28.278 154.896 29.873L152.696 31.106C152.26 30.163 151.413 29.728 150.422 29.728C149.479 29.728 148.657 30.138 148.657 31.009ZM159.805 31.009C159.805 33.21 166.31 31.879 166.31 36.354C166.31 38.773 164.206 40.078 161.594 40.078C159.176 40.078 157.436 38.989 156.661 37.248L158.91 35.943C159.297 37.031 160.264 37.683 161.594 37.683C162.755 37.683 163.65 37.297 163.65 36.329C163.65 34.178 157.145 35.387 157.145 31.059C157.145 28.785 159.104 27.358 161.571 27.358C163.553 27.358 165.198 28.278 166.044 29.873L163.844 31.106C163.409 30.163 162.562 29.728 161.571 29.728C160.627 29.728 159.805 30.138 159.805 31.009Z" fill="black"/>
</g>
<defs>
<clipPath id="clip0_609_992">
<rect width="167" height="21" fill="white" transform="translate(0 21.5)"/>
</clipPath>
</defs>
</svg>
